<svg id="swoosh-svg" width="500" height="500" viewBox="0 0 500 500" xmlns="http://www.w3.org/2000/svg" style="background-image: none; background-color: transparent;">
            <g id="lines-group"><path d="M 60 250 C 226.96451424620358 501.9502885287396, 256.00519113864675 281.75375505861956, 450 150" fill="none" stroke="black" stroke-width="1.5" stroke-linecap="round"/><path d="M 60 250 C 178.64326555814642 521.8602390522624, 241.7390846703351 200.05650002031052, 450 150" fill="none" stroke="black" stroke-width="1.5" stroke-linecap="round"/><path d="M 60 250 C 205.033629547066 518.8126660194235, 220.34958803160666 273.69479495952146, 450 150" fill="none" stroke="black" stroke-width="1.5" stroke-linecap="round"/><path d="M 60 250 C 144.21710645028259 532.3082171755884, 286.0852867234944 274.3244886066406, 450 150" fill="none" stroke="black" stroke-width="1.5" stroke-linecap="round"/><path d="M 60 250 C 174.20811762287164 509.01791462779215, 295.836618361079 257.5037314337115, 450 150" fill="none" stroke="black" stroke-width="1.5" stroke-linecap="round"/><path d="M 60 250 C 181.07094422305943 520.4960642972379, 209.38269548010933 238.37731859120407, 450 150" fill="none" stroke="black" stroke-width="1.5" stroke-linecap="round"/><path d="M 60 250 C 203.65103687880293 519.9203009142874, 272.2862377175772 212.49195784254684, 450 150" fill="none" stroke="black" stroke-width="1.5" stroke-linecap="round"/><path d="M 60 250 C 227.1836703350298 462.1100434881346, 209.46199820117604 238.13496394850844, 450 150" fill="none" stroke="black" stroke-width="1.5" stroke-linecap="round"/><path d="M 60 250 C 145.89372567683768 535.2309211701264, 206.63162472722587 221.85500528300292, 450 150" fill="none" stroke="black" stroke-width="1.5" stroke-linecap="round"/><path d="M 60 250 C 148.80465453684434 458.7039327332643, 219.35135109408287 273.9714105117677, 450 150" fill="none" stroke="black" stroke-width="1.5" stroke-linecap="round"/><path d="M 60 250 C 204.031579908589 522.7167077429879, 235.7086702009832 235.36212559813734, 450 150" fill="none" stroke="black" stroke-width="1.5" stroke-linecap="round"/><path d="M 60 250 C 194.90977486898285 493.2474479616405, 298.06325673841235 189.4815978268025, 450 150" fill="none" stroke="black" stroke-width="1.5" stroke-linecap="round"/><path d="M 60 250 C 236.41322452976476 524.8614671727262, 272.5956916186246 204.99436053597753, 450 150" fill="none" stroke="black" stroke-width="1.5" stroke-linecap="round"/><path d="M 60 250 C 223.4998193695168 459.6146801495187, 209.37018219491995 217.89024479276569, 450 150" fill="none" stroke="black" stroke-width="1.5" stroke-linecap="round"/><path d="M 60 250 C 202.42395089988327 539.6792966936844, 215.4708078873929 270.2223736883512, 450 150" fill="none" stroke="black" stroke-width="1.5" stroke-linecap="round"/><path d="M 60 250 C 165.3639461550205 535.5952011598105, 291.4177667386277 195.50289070000974, 450 150" fill="none" stroke="black" stroke-width="1.5" stroke-linecap="round"/><path d="M 60 250 C 143.73915671876526 454.55565662326296, 238.67435338943355 231.6030782221647, 450 150" fill="none" stroke="black" stroke-width="1.5" stroke-linecap="round"/><path d="M 60 250 C 192.11036016305457 527.2129007897843, 291.45139390819486 239.40008690145305, 450 150" fill="none" stroke="black" stroke-width="1.5" stroke-linecap="round"/><path d="M 60 250 C 201.69134633027167 536.1950214891494, 259.7675959358103 189.89439831708015, 450 150" fill="none" stroke="black" stroke-width="1.5" stroke-linecap="round"/><path d="M 60 250 C 153.4520353908949 500.98811046842025, 275.72362329216645 193.1829205562287, 450 150" fill="none" stroke="black" stroke-width="1.5" stroke-linecap="round"/></g>
        </svg>