<svg id="swoosh-svg" width="500" height="500" viewBox="0 0 500 500" xmlns="http://www.w3.org/2000/svg" style="background-image: none; background-color: transparent;">
            <g id="lines-group"><path d="M 60 250 C 223.17890453866028 489.23413880595234, 267.8915161320693 281.0497795543108, 450 150" fill="none" stroke="black" stroke-width="2" stroke-linecap="round"/><path d="M 60 250 C 171.97199265151494 455.28929939768443, 235.96237503455757 210.70839236070324, 450 150" fill="none" stroke="black" stroke-width="2" stroke-linecap="round"/><path d="M 60 250 C 161.20293336883094 444.5012620081873, 234.1304977401242 249.3539064898402, 450 150" fill="none" stroke="black" stroke-width="2" stroke-linecap="round"/><path d="M 60 250 C 230.09525553045188 476.18923183109916, 274.81099244255853 227.5705578316707, 450 150" fill="none" stroke="black" stroke-width="2" stroke-linecap="round"/><path d="M 60 250 C 147.6228795777963 524.3673930844358, 301.47224995455827 211.70372923811973, 450 150" fill="none" stroke="black" stroke-width="2" stroke-linecap="round"/><path d="M 60 250 C 233.67526758831235 481.7566724268586, 249.1404670552645 236.109679308603, 450 150" fill="none" stroke="black" stroke-width="2" stroke-linecap="round"/><path d="M 60 250 C 227.83003102091868 462.4482177170877, 248.83734333514624 219.90683061837333, 450 150" fill="none" stroke="black" stroke-width="2" stroke-linecap="round"/><path d="M 60 250 C 219.97443630665623 453.69106550502397, 265.72874003507434 219.29127877257272, 450 150" fill="none" stroke="black" stroke-width="2" stroke-linecap="round"/><path d="M 60 250 C 232.9023555111693 511.51568228337254, 227.1796069188513 266.06982125111557, 450 150" fill="none" stroke="black" stroke-width="2" stroke-linecap="round"/><path d="M 60 250 C 182.23660870358648 458.1384018982986, 228.70964569797002 191.33663273033, 450 150" fill="none" stroke="black" stroke-width="2" stroke-linecap="round"/><path d="M 60 250 C 240.21765090572322 519.6887321792129, 218.47784259318288 264.79770464547045, 450 150" fill="none" stroke="black" stroke-width="2" stroke-linecap="round"/><path d="M 60 250 C 177.46701373402422 516.0250240573647, 242.8913488501552 267.9308314304428, 450 150" fill="none" stroke="black" stroke-width="2" stroke-linecap="round"/><path d="M 60 250 C 233.2367830784248 451.63854731772636, 209.44898188607732 280.9127568622683, 450 150" fill="none" stroke="black" stroke-width="2" stroke-linecap="round"/><path d="M 60 250 C 216.930546023937 521.3703499881135, 287.6072970123992 213.88501304628505, 450 150" fill="none" stroke="black" stroke-width="2" stroke-linecap="round"/><path d="M 60 250 C 142.1659346133035 467.07484545766056, 268.5840219095466 244.66145500984462, 450 150" fill="none" stroke="black" stroke-width="2" stroke-linecap="round"/><path d="M 60 250 C 232.54135085026178 452.5733548942288, 270.22722569947945 193.2493263923888, 450 150" fill="none" stroke="black" stroke-width="2" stroke-linecap="round"/><path d="M 60 250 C 157.24232890248513 511.7766971269808, 255.6299823348528 207.73647268390215, 450 150" fill="none" stroke="black" stroke-width="2" stroke-linecap="round"/><path d="M 60 250 C 151.096579902593 469.4425907740471, 213.6013066268912 252.35136861599133, 450 150" fill="none" stroke="black" stroke-width="2" stroke-linecap="round"/><path d="M 60 250 C 209.9709445228278 460.82884935177, 204.54924870581465 216.39842449759104, 450 150" fill="none" stroke="black" stroke-width="2" stroke-linecap="round"/><path d="M 60 250 C 191.59771882497395 473.28737109017646, 212.0386049158632 211.47886159531197, 450 150" fill="none" stroke="black" stroke-width="2" stroke-linecap="round"/></g>
        </svg>